<svg id="Layer_1" data-name="Layer 1" xmlns="http://www.w3.org/2000/svg" viewBox="0 0 700 550"><title>worried-working</title><path d="M409.56165,175.61517c-.15482.28064-.30969.571-.48388.85165-.07738.14513-.1742.29032-.24195.42582-.04837.12575-.09675.27094-.13544.40645-.17425.57095-.32907,1.19034-.47426,1.79035l-.89033,3.64852c-.28063,1.2194-.55164,2.4388-.80327,3.65814-.15482.813-.30963,1.61622-.40645,2.46787l29.92349-29.11059a60.61132,60.61132,0,0,1-5.21625-18.14572c-4.64535,2.20649-10.58742,4.9453-18.61029,8.27444-13.32617,5.526-16.90694,34.13332-16.90694,34.13332s6.14533,1.35485,9.61.34839a16.98156,16.98156,0,0,1,.3-2.09036,17.85524,17.85524,0,0,1,1.21941-3.813,11.30581,11.30581,0,0,1,.99677-1.79041c.09681-.14513.21294-.29032.33876-.44514l.26125-.39682c.18388-.26131.34845-.53226.51295-.80326,1.3549-2.17749,2.642-4.43235,3.90978-6.67759l3.82271-6.76472q-1.56781,3.5565-3.2227,7.07441C411.94239,170.9892,410.8198,173.32156,409.56165,175.61517Zm-12.31971,8.12925a1.45258,1.45258,0,0,1,0-2.90332A1.45258,1.45258,0,0,1,397.24194,183.74442Zm4.76142,0a1.45258,1.45258,0,0,1,0-2.90332A1.45258,1.45258,0,0,1,402.00336,183.74442Z" fill="#020202"/><path d="M406.04543,190.18738a16.92383,16.92383,0,0,0,5.07373,1.32812,10.26212,10.26212,0,0,0,2.51441-.09422c.86108-.10475,1.699-.373,2.65039-.58383a5.83024,5.83024,0,0,1-2.34644,1.67509,6.24481,6.24481,0,0,1-2.92993.44989,6.8962,6.8962,0,0,1-2.825-.84649A5.85068,5.85068,0,0,1,406.04543,190.18738Z"/><path d="M320.49766,236.459a34.66818,34.66818,0,0,1-.23225-3.9969Z"/><path d="M320.56541,237.63962l-.06775-1.18065a19.20338,19.20338,0,0,0,2.32262,7.53892C320.37185,240.40744,320.56541,237.63962,320.56541,237.63962Z"/><path d="M322.9074,244.13339c.3097.45483.66777.9194,1.06453,1.39359A8.84409,8.84409,0,0,1,322.9074,244.13339Z"/><path d="M526.99109,261.85329l-358.0755-2.42912v-5.855q44.69649.7113,89.39306,1.07422c29.79766.32907,59.59539.43551,89.39306.6097,29.79766.21288,59.60508.22257,89.40274.28063l44.70138.04844,44.353-.09682Z"/><polygon points="584.032 220.413 584.032 226.423 526.991 261.853 526.885 255.36 541.15 246.688 555.453 237.949 584.032 220.413"/><line x1="392.8301" y1="236.63941" x2="394.7654" y2="236.67429" fill="none" stroke="#020202" stroke-miterlimit="10" stroke-width="1.93554"/><line x1="398.7466" y1="236.74603" x2="444.53176" y2="237.57141" fill="none" stroke="#020202" stroke-miterlimit="10" stroke-width="1.93554" stroke-dasharray="3.98196 3.98196"/><line x1="446.52248" y1="237.6073" x2="448.45754" y2="237.64218" fill="none" stroke="#020202" stroke-miterlimit="10" stroke-width="1.93554"/><line x1="394.94729" y1="233.17652" x2="396.88259" y2="233.2114" fill="none" stroke="#020202" stroke-miterlimit="10" stroke-width="1.93554"/><line x1="400.86404" y1="233.28317" x2="446.64895" y2="234.10855" fill="none" stroke="#020202" stroke-miterlimit="10" stroke-width="1.93554" stroke-dasharray="3.98196 3.98196"/><line x1="448.63967" y1="234.14441" x2="450.57497" y2="234.17932" fill="none" stroke="#020202" stroke-miterlimit="10" stroke-width="1.93554"/><line x1="397.50246" y1="229.75659" x2="399.43777" y2="229.79147" fill="none" stroke="#020202" stroke-miterlimit="10" stroke-width="1.93554"/><line x1="403.41897" y1="229.86325" x2="449.20412" y2="230.6886" fill="none" stroke="#020202" stroke-miterlimit="10" stroke-width="1.93554" stroke-dasharray="3.98196 3.98196"/><line x1="451.19485" y1="230.72449" x2="453.1299" y2="230.75937" fill="none" stroke="#020202" stroke-miterlimit="10" stroke-width="1.93554"/><path d="M232.63576,225.97287c.49756,14.038.82666,28.076,1.2461,42.11405l.93481,42.11407q.25635,10.52852.5918,21.057.29773,10.52852.03125,21.057l-.366,10.52854c-.18506,3.50949-.30884,7.019-.5581,10.5285-.43335,7.019-.98706,14.038-1.87989,21.057a.314.314,0,0,1-.623,0c-.89283-7.019-1.44654-14.038-1.87964-21.057-.24951-3.50949-.37329-7.019-.55835-10.5285l-.366-10.52854q-.27063-10.52851.03125-21.057.34644-10.52853.5918-21.057l.93481-42.11407c.41944-14.038.74854-28.07605,1.2461-42.11405a.31171.31171,0,0,1,.623,0Z" fill="#020202"/><path d="M176.89211,261.74506c.49756,14.038.82666,28.076,1.2461,42.114l.93481,42.11408q.25635,10.52851.5918,21.057.2981,10.52848.03125,21.057l-.366,10.52853c-.18506,3.5095-.30884,7.019-.55811,10.52851-.43335,7.019-.98681,14.038-1.87988,21.057a.314.314,0,0,1-.62305,0c-.89282-7.019-1.44653-14.038-1.87963-21.057-.24952-3.50949-.3733-7.019-.55835-10.52851l-.366-10.52853q-.27063-10.52851.03125-21.057.34644-10.52852.5918-21.057l.93481-42.11408c.41943-14.038.74854-28.07605,1.24609-42.114a.31172.31172,0,0,1,.62305,0Z" fill="#020202"/><path d="M576.77541,225.97287c.49756,14.038.82666,28.076,1.2461,42.11405l.93457,42.11407q.25671,10.52852.592,21.057.29772,10.52852.03125,21.057l-.366,10.52854c-.18506,3.50949-.30884,7.019-.55835,10.5285-.4331,7.019-.98682,14.038-1.87964,21.057a.314.314,0,0,1-.623,0c-.89307-7.019-1.44654-14.038-1.87989-21.057-.24951-3.50949-.373-7.019-.5581-10.5285l-.366-10.52854q-.27063-10.52851.03125-21.057.34644-10.52853.5918-21.057l.93457-42.11407c.41968-14.038.74853-28.07605,1.24634-42.11405a.31171.31171,0,0,1,.623,0Z" fill="#020202"/><path d="M521.03176,261.74506c.49756,14.038.82666,28.076,1.24609,42.114l.93457,42.11408q.25673,10.52851.592,21.057.29774,10.52848.03125,21.057l-.366,10.52853c-.18506,3.5095-.30884,7.019-.55835,10.52851-.43311,7.019-.98682,14.038-1.87964,21.057a.314.314,0,0,1-.623,0c-.89306-7.019-1.44653-14.038-1.87988-21.057-.24951-3.50949-.373-7.019-.55811-10.52851l-.366-10.52853q-.27063-10.52851.03125-21.057.34642-10.52852.59179-21.057l.93458-42.11408c.41967-14.038.74853-28.07605,1.24633-42.114a.31172.31172,0,0,1,.623,0Z" fill="#020202"/><path d="M442.76833,134.06621a6.73215,6.73215,0,0,1-4.38257-1.8122,18.28041,18.28041,0,0,1-3.186-3.56225,33.6913,33.6913,0,0,1-2.44483-4.05916,41.01023,41.01023,0,0,1-1.94531-4.32594l1.54468.41026a2.5083,2.5083,0,0,1-1.93774.58228,3.53654,3.53654,0,0,1-1.59424-.67432,5.81782,5.81782,0,0,1-1.86158-2.33109,5.93967,5.93967,0,0,1-.56542-2.87573,5.17215,5.17215,0,0,1,.99682-2.77075,6.37406,6.37406,0,0,1,2.1582-1.80963,3.97107,3.97107,0,0,1,1.41285-.44452,2.29929,2.29929,0,0,1,1.53588.371,4.31926,4.31926,0,0,1,1.42579,2.39032,12.70906,12.70906,0,0,1,.41235,2.58553l-.26514-.31639a4.89348,4.89348,0,0,0,3.24585-.44945,9.827,9.827,0,0,0,2.717-2.07071,26.99042,26.99042,0,0,0,3.94776-5.73853c1.10132-2.06285,2.09814-4.18609,3.02344-6.34153.92578-2.148,1.78076-4.36158,2.5039-6.55552a1.12107,1.12107,0,0,1,2.127-.00714l.01514.04626c1.01636,3.07208,2.13843,6.15723,3.36914,9.14857.64258,1.484,1.31445,2.94941,2.06958,4.34732a11.13832,11.13832,0,0,0,2.73438,3.51111l.104.075a.77333.77333,0,0,1,.31543.55393c.1875,2.0903.238,4.16188.22266,6.24876a28.71459,28.71459,0,0,1-.20386,3.12773,9.5546,9.5546,0,0,1-.771,3.05684.10967.10967,0,0,1-.20434-.07692l.00244-.00875a10.83821,10.83821,0,0,0,.2688-3.008c-.02588-1.01724-.11328-2.03308-.19678-3.04918-.18384-2.029-.49219-4.065-.82422-6.061l.41919.62861a11.76145,11.76145,0,0,1-3.63159-3.9503,39.66563,39.66563,0,0,1-2.37622-4.4856,67.83066,67.83066,0,0,1-3.45191-9.41655l2.14185.03911c-.84692,2.2896-1.78711,4.47951-2.81909,6.65923a49.95688,49.95688,0,0,1-3.53662,6.301,30.423,30.423,0,0,1-4.63111,5.59285,12.15446,12.15446,0,0,1-3.0415,2.06727,5.931,5.931,0,0,1-3.68652.47805.33231.33231,0,0,1-.26416-.2986l-.00147-.018a9.65368,9.65368,0,0,0-.46142-2.39119,3.28844,3.28844,0,0,0-1.20923-1.8175c-1.08448-.55239-2.67993.761-3.38086,1.90011a4.08719,4.08719,0,0,0,.05566,4.00618,4.55453,4.55453,0,0,0,1.29736,1.5616,1.66778,1.66778,0,0,0,.70875.31435.52363.52363,0,0,0,.42211-.0993l.08521-.05941a.96363.96363,0,0,1,1.34155.23915,1.00156,1.00156,0,0,1,.11817.23059c.49389,1.39989,1.106,2.81614,1.71972,4.19832.63233,1.38042,1.31885,2.73491,2.0774,4.04076a21.51357,21.51357,0,0,0,2.62011,3.65076,6.68255,6.68255,0,0,0,3.72608,2.30325.11026.11026,0,0,1,.09179.12617A.11176.11176,0,0,1,442.76833,134.06621Z" fill="#020202"/><path d="M437.35818,130.289c.09423.77113.17407,1.54225.24511,2.31337a9.59611,9.59611,0,0,1-.01782,2.413,8.93321,8.93321,0,0,1-2.04736,4.48708,9.07238,9.07238,0,0,1-1.89966,1.67329,10.93875,10.93875,0,0,1-1.0874.631l-1.03736.51748c-1.38842.67872-2.772,1.369-4.18579,1.99374-2.81616,1.275-5.74048,2.30934-8.63818,3.38959-1.45581.5251-2.90015,1.07335-4.32959,1.65687a19.50848,19.50848,0,0,0-4.09766,1.98711,19.89781,19.89781,0,0,0-5.7478,6.85817,55.22541,55.22541,0,0,0-3.69775,8.26492,134.09426,134.09426,0,0,0-4.63746,17.64452l-.67309-.95369a40.86089,40.86089,0,0,0,5.1167.97439,20.3238,20.3238,0,0,0,2.59814.16434,7.80621,7.80621,0,0,0,2.55323-.38988.11007.11007,0,0,1,.14306.06168.113.113,0,0,1-.04248.13319,7.04975,7.04975,0,0,1-2.58374.90224,15.79308,15.79308,0,0,1-2.72217.25359,26.0078,26.0078,0,0,1-2.7207-.08532c-.90771-.07277-1.7959-.1632-2.71582-.32162a.82257.82257,0,0,1-.67993-.8822l.00659-.07173a68.56049,68.56049,0,0,1,1.51587-9.24628,59.18649,59.18649,0,0,1,2.80908-8.94962,42.03232,42.03232,0,0,1,4.342-8.37068,23.64777,23.64777,0,0,1,6.73145-6.609,31.28,31.28,0,0,1,4.23218-2.00472c1.41381-.61267,2.802-1.2859,4.17431-1.99193,2.75635-1.38662,5.46021-2.87907,8.24585-4.18791,1.38721-.66685,2.79859-1.28149,4.19873-1.92154l1.05249-.47418a9.02035,9.02035,0,0,0,.9458-.46918,8.23937,8.23937,0,0,0,1.655-1.26347,8.40564,8.40564,0,0,0,2.16675-3.62581,9.75509,9.75509,0,0,0,.365-2.18739c.07105-.77112.15088-1.54224.24512-2.31337a.11043.11043,0,0,1,.21924,0Z" fill="#020202"/><path d="M406.04543,190.18738a25.39745,25.39745,0,0,1,.98,6.63184q.17688,3.35686.052,6.72007c-.06713,2.24115-.21313,4.48076-.47412,6.71822a38.40189,38.40189,0,0,1-1.25586,6.72609l-.96826-1.2816,13.71314-.76429,13.7185-.64933,13.72022-.59049c4.573-.2178,9.14721-.3433,13.71753-.7456-2.23828.50851-4.51221.87344-6.78443,1.19543-2.27221.34444-4.55053.62244-6.83178.874-4.56153.50388-9.13086.90722-13.70362,1.24436-4.57129.36134-9.14917.59886-13.72558.85712-4.57935.2073-9.156.42083-13.7417.52995l-.0149.00035a.97839.97839,0,0,1-1.00146-.955.9945.9945,0,0,1,.0481-.32711,45.41207,45.41207,0,0,0,1.43994-6.34433c.35693-2.17369.6167-4.37251.85205-6.57412.21167-2.20375.406-4.41426.51074-6.6305A30.62855,30.62855,0,0,0,406.04543,190.18738Z" fill="#020202"/><path d="M461.60961,217.12591c-3.90969.66319-21.25216.30642-30.22351.07186,0,0,19.18882-16.06592,19.249-22.09323h0s6.68816,17.213,8.6136,17.84775Z" fill="#020202"/><path d="M396.31765,184.20505c-.2002,1.71637-.5,3.40376-.833,5.08142-.32593,1.67976-.70752,3.34338-1.10864,5.00128q-.605,2.48585-1.30469,4.94417c-.43628,1.64774-.97217,3.26637-1.45654,4.90007l-.00977.03278a.87321.87321,0,0,1-.09814.2144c-1.156,1.79933-2.335,3.58494-3.5708,5.3363-1.249,1.7435-2.5232,3.47194-3.92871,5.12163.79419-2.0164,1.71972-3.954,2.67041-5.87663.96362-1.91474,1.98437-3.7952,3.02807-5.66195l-.10791.24682c.46753-1.63857.8833-3.29221,1.39917-4.91674q.72327-2.45156,1.55078-4.87263c.55078-1.61438,1.1211-3.223,1.74707-4.81554C394.9136,187.34583,395.5657,185.761,396.31765,184.20505Z" fill="#020202"/><path d="M405.24074,211.73515a4.75182,4.75182,0,0,1,.13916,3.9083,1.72842,1.72842,0,0,1-.95971,1.0341,5.28029,5.28029,0,0,0,.12768-1.23494c.00537-.40367.03614-.80537.06958-1.21245A7.51734,7.51734,0,0,1,405.24074,211.73515Z" fill="#020202"/><path d="M427.17971,217.12592a35.4261,35.4261,0,0,0,7.08887-3.8026,47.71678,47.71678,0,0,0,6.12451-5.02965c.93847-.93359,1.88623-1.85945,2.7395-2.88029.937-.94892,1.71167-2.03444,2.58594-3.05179.45-.50047.81372-1.06342,1.22363-1.59723l1.22681-1.613c.79174-1.09776,1.5393-2.23117,2.406-3.31926-.43042,1.30484-.93261,2.59211-1.47705,3.86447-.64136,1.21656-1.21655,2.48923-1.97827,3.64814a34.9402,34.9402,0,0,1-5.20142,6.52342,30.11149,30.11149,0,0,1-6.77832,4.92078A19.07268,19.07268,0,0,1,427.17971,217.12592Z" fill="#020202"/><path d="M416.17776,147.621c1.05078-6.15281,2.33691-12.23837,3.64575-18.30893l1.97119-9.08564c.33594-1.50873.68042-3.01317.92773-4.5136.11426-.74033.1626-1.438.25513-2.29864a21.54788,21.54788,0,0,1,.4519-2.355,51.83175,51.83175,0,0,1,3.12452-8.88508,33.8776,33.8776,0,0,1,2.26147-4.14331,22.22061,22.22061,0,0,1,2.93384-3.76,13.53614,13.53614,0,0,1,8.65625-4.28907,15.47205,15.47205,0,0,1,2.499.01237,17.41953,17.41953,0,0,1,2.43555.45639,23.09218,23.09218,0,0,1,4.56885,1.74621l-.75464-.1a14.132,14.132,0,0,1,5.21533-.08148,10.89306,10.89306,0,0,1,4.84766,2.09727,11.69891,11.69891,0,0,1,1.90869,1.87983c.25293.36224.47973.74211.71728,1.11374a5.56606,5.56606,0,0,1,.62159,1.15289,12.04853,12.04853,0,0,1,.85937,2.42844,14.92289,14.92289,0,0,1,.47144,2.48329c.06152.83069.1997,1.66043.19091,2.48685l-.06933,2.47143c-.08008,1.6183-.25269,3.15581-.28784,4.74694a45.27126,45.27126,0,0,0,.07837,4.72412,8.29093,8.29093,0,0,0,1.24145,4.411l.0105.01381a.109.109,0,0,1-.15625.15013,5.0898,5.0898,0,0,1-1.31763-2.08971,18.31686,18.31686,0,0,1-.636-2.365,35.33673,35.33673,0,0,1-.56177-4.82654c-.10645-1.60217-.10474-3.25633-.11328-4.828l-.08814-2.31784c-.04858-.768-.2041-1.51719-.29687-2.27391a12.92,12.92,0,0,0-.52491-2.19191,11.94829,11.94829,0,0,0-.80444-2.04958,4.07951,4.07951,0,0,0-.53589-.934c-.20166-.29408-.38891-.59959-.596-.88691a9.58508,9.58508,0,0,0-1.5332-1.428,8.548,8.548,0,0,0-3.84765-1.675,12.40635,12.40635,0,0,0-4.3086-.07521l-.06787.01155a1.07105,1.07105,0,0,1-.687-.11159,16.62377,16.62377,0,0,0-8.36939-2.29207,12.52462,12.52462,0,0,0-7.9663,3.27736,22.61405,22.61405,0,0,0-5.38135,7.34526,31.0759,31.0759,0,0,0-2.71924,8.79421,20.41874,20.41874,0,0,0-.22583,2.25937c-.01294.69.00195,1.55055-.05225,2.35608-.13281,1.58741-.31225,3.15147-.57006,4.69619-.48877,3.09646-1.20191,6.13616-1.93848,9.16517-1.49243,6.05415-3.20215,12.04785-5.27124,17.94149a.11014.11014,0,0,1-.2124-.05545Z" fill="#020202"/><path d="M377.19948,218.69068a7.20705,7.20705,0,0,1,1.2754-1.95754,8.211,8.211,0,0,1,1.85473-1.52988,10.29235,10.29235,0,0,1,4.627-1.38493l-.08056.00629a13.7016,13.7016,0,0,1,3.35254.04762,13.39328,13.39328,0,0,1,3.20385.84975,10.46144,10.46144,0,0,1,2.83155,1.72023,7.94963,7.94963,0,0,1,2.00049,2.54847,17.66717,17.66717,0,0,0-2.65381-1.54585,14.32441,14.32441,0,0,0-2.76685-.94791,20.72327,20.72327,0,0,0-5.72046-.54689l-.08081.00632a13.19331,13.19331,0,0,0-4.053.638,11.27016,11.27016,0,0,0-1.93115.85655A16.71529,16.71529,0,0,0,377.19948,218.69068Z" fill="#020202"/><path d="M396.31754,226.42223c-6.5588,15.75777-16.7211,9.5413-16.7211,9.5413s4.56183-2.74885,5.34568-15.93361c0,0,1.981-2.8991,4.538,0A71.2327,71.2327,0,0,0,396.31754,226.42223Z" fill="#fff"/><path d="M396.4114,226.39865c-.22559.80966-.50684,1.74652-.84741,2.70941-.37793.9011-.8086,1.70826-1.2439,2.561-.24414.40664-.52612.7933-.79932,1.18536a8.9697,8.9697,0,0,1-.87207,1.14566l-1.00683,1.05216a12.66712,12.66712,0,0,1-1.14356.92633,8.98475,8.98475,0,0,1-5.56274,1.7254,12.40621,12.40621,0,0,1-5.49341-1.4881.28275.28275,0,0,1-.03809-.47622l.0398-.02945a7.88949,7.88949,0,0,0,2.28491-3.36863,22.32721,22.32721,0,0,0,1.15674-4.0234c.165-.6767.25561-1.37689.39893-2.05872.09887-.695.20849-1.38678.2915-2.08334.06226-.70116.14209-1.39823.19092-2.0999.0271-.70473.09179-1.40543.1438-2.1075l.00439-.06013a.86588.86588,0,0,1,.17407-.46177,4.091,4.091,0,0,1,1.91455-1.497,3.2,3.2,0,0,1,2.56836.14745,5.34071,5.34071,0,0,1,1.67554,1.44229c.37964.45787.7666.91819,1.16528,1.37431.80054.908,1.6272,1.809,2.46094,2.70943l1.25,1.35875C395.55544,225.45932,395.93337,225.83277,396.4114,226.39865Zm-.18775.04715a13.78952,13.78952,0,0,1-1.53173-.96307c-.51612-.34635-1.02442-.70407-1.519-1.07926-.99633-.7427-1.96631-1.52348-2.89721-2.36264q-.70643-.62008-1.3689-1.30641a3.81732,3.81732,0,0,0-1.16357-.874,1.17634,1.17634,0,0,0-1.00831-.01,2.67185,2.67185,0,0,0-.93969.76253l.17846-.52155c-.063.72818-.11352,1.45773-.20141,2.18323-.09326.72581-.21826,1.44975-.32617,2.17315-.12891.72208-.2854,1.44123-.43189,2.15958-.19482.71216-.3518,1.42908-.59936,2.12741a20.97505,20.97505,0,0,1-1.81812,4.0391,11.47979,11.47979,0,0,1-2.84741,3.443l.00146-.5055a8.04107,8.04107,0,0,0,2.49414.86673,7.30014,7.30014,0,0,0,1.32081.09369,6.628,6.628,0,0,0,1.30224-.10272,11.18506,11.18506,0,0,0,4.624-2.00748,18.14869,18.14869,0,0,0,3.69947-3.65109c.48828-.73282,1.05884-1.46982,1.54028-2.18823Z" fill="#020202"/><path d="M390.60647,203.83876a5.36188,5.36188,0,0,1,1.76294-.6772,8.79867,8.79867,0,0,1,1.85449-.19441,7.50548,7.50548,0,0,1,3.6145.87161,12.49722,12.49722,0,0,1-1.84033.18991c-.59839.02848-1.189.0322-1.7793.0345A27.27858,27.27858,0,0,1,390.60647,203.83876Z" fill="#020202"/><path d="M342.18654,260.63648a7.68647,7.68647,0,0,0-2.67993,1.26025,17.324,17.324,0,0,0-2.29394,1.92108,38.80055,38.80055,0,0,0-3.92139,4.55985,112.13926,112.13926,0,0,0-6.55029,10.14407c-4.05591,6.97223-7.59351,14.239-11.083,21.519-3.46338,7.29566-6.73413,14.68564-9.88428,22.12641-3.15869,7.43451-6.29907,14.89022-9.24121,22.405l-.16748-.91416c2.72632,3.08469,5.625,6.07416,8.60718,8.94306a112.61976,112.61976,0,0,0,9.38061,8.12786,41.11022,41.11022,0,0,0,10.61084,6.21344,11.2535,11.2535,0,0,0,5.90772.67292,6.52083,6.52083,0,0,0,4.49023-3.53968l.00342-.00689a.33146.33146,0,0,1,.2461-.17615,19.661,19.661,0,0,1,5.72607.07284,16.73632,16.73632,0,0,1,5.4292,1.79273,15.68582,15.68582,0,0,1,2.40356,1.58453,15.34814,15.34814,0,0,1,2.02369,2.04959,15.68184,15.68184,0,0,1,1.64453,2.36005c.49267.82248.82861,1.72525,1.24878,2.58554l-.30152-.24914a32.88873,32.88873,0,0,0,12.22241-1.17447,47.38316,47.38316,0,0,0,11.35645-4.84726l2.61621-1.65647c.88086-.53762,1.66626-1.21942,2.50366-1.821a57.04619,57.04619,0,0,0,4.74585-3.973c.7981-.6557,1.48364-1.4353,2.21265-2.16629l2.16211-2.21918c1.35351-1.56219,2.65991-3.16714,3.99194-4.74615l-.18994.6853-4.36279-32.6424-2.14722-16.3255L386.836,286.86569a1.13283,1.13283,0,0,1,1.25586-1.26584l.01489.00208a216.138,216.138,0,0,0,23.45044,1.45389,153.24452,153.24452,0,0,0,23.44116-1.40958c7.71411-1.155,15.44629-2.931,22.37622-6.52957a32.18177,32.18177,0,0,0,9.25269-6.99265,23.45063,23.45063,0,0,0,5.33862-10.28961.1097.1097,0,0,1,.2146.04541,23.907,23.907,0,0,1-5.029,10.69065,31.6415,31.6415,0,0,1-9.24976,7.51913,56.44523,56.44523,0,0,1-11.02417,4.58,87.09846,87.09846,0,0,1-11.61767,2.6679,155.11806,155.11806,0,0,1-23.70606,1.82639c-3.96338.03592-7.926-.07675-11.88159-.3024-3.96143-.22742-7.894-.535-11.8645-1.01907l1.27026-1.26358,2.11963,16.32907,2.033,16.34018,3.9978,32.689.00586.04657a.82655.82655,0,0,1-.1958.6391c-1.38843,1.59522-2.75049,3.21231-4.1604,4.7851l-2.251,2.23727a30.55735,30.55735,0,0,1-2.30542,2.17752,58.53509,58.53509,0,0,1-4.96582,3.95124c-.87426.59655-1.69433,1.27056-2.6123,1.80154l-2.72461,1.63135a49.39381,49.39381,0,0,1-11.75342,4.70279,35.0151,35.0151,0,0,1-12.62036.9638.35643.35643,0,0,1-.27661-.19683l-.02539-.05253c-.39893-.82592-.71338-1.7001-1.17871-2.48938a14.909,14.909,0,0,0-1.55078-2.2633,14.61938,14.61938,0,0,0-1.908-1.96555,14.98841,14.98841,0,0,0-2.27637-1.5256,16.052,16.052,0,0,0-5.19507-1.76,18.45956,18.45956,0,0,0-5.49341-.02777l.24927-.18286-.86963,1.37045c-.37915.39194-.72412.823-1.13916,1.17825a6.858,6.858,0,0,1-2.94384,1.41745,12.02721,12.02721,0,0,1-6.34668-.63373,44.56935,44.56935,0,0,1-11.0127-6.10229,112.58183,112.58183,0,0,1-9.70605-7.96783c-3.09253-2.82535-6.07374-5.74213-8.94336-8.82377a.8633.8633,0,0,1-.175-.89584l.00732-.01865c2.8999-7.57711,5.91626-15.0906,9.12891-22.53173,3.23511-7.42905,6.59106-14.80719,10.14258-22.09555,3.54687-7.28971,7.38232-14.44858,11.61059-21.38175a95.00015,95.00015,0,0,1,6.95239-10.01111,39.4215,39.4215,0,0,1,4.16431-4.47461,16.14576,16.14576,0,0,1,2.44287-1.85745,7.97282,7.97282,0,0,1,2.84351-1.16046.10971.10971,0,0,1,.04052.21558Z" fill="#020202"/><path d="M495.81472,153.13364a15.22323,15.22323,0,0,1,4.99121-.78174,13.70718,13.70718,0,0,1,5.06519.94858,11.73191,11.73191,0,0,1,4.25952,3.07824,14.89251,14.89251,0,0,1,2.66211,4.53956,28.80147,28.80147,0,0,1,1.62207,10.18658,82.21145,82.21145,0,0,1-.83448,10.1244c-.87329,6.65433-1.92724,13.29143-3.34838,19.85824a119.04785,119.04785,0,0,1-5.627,19.32794q1.27294-4.86541,2.17627-9.79177c.64478-3.27665,1.21387-6.56593,1.76929-9.85594q1.6051-9.88156,2.85547-19.81677a86.48582,86.48582,0,0,0,.938-9.86408,29.02793,29.02793,0,0,0-1.1565-9.59341,11.931,11.931,0,0,0-5.76416-7.22234A15.27217,15.27217,0,0,0,495.81472,153.13364Z" fill="#020202"/><path d="M388.86184,293.44132c6.96582,1.42364,13.9209,2.73938,20.89673,3.89462l10.47509,1.63785q5.23683.84123,10.52466,1.391a86.05687,86.05687,0,0,0,10.61182.30017,78.50892,78.50892,0,0,0,10.52954-1.14459,70.01175,70.01175,0,0,0,10.18384-2.56736,41.84171,41.84171,0,0,0,9.38452-4.371l.04077-.02313.14185-.06976a19.85266,19.85266,0,0,0,3.76587-2.52552,39.86034,39.86034,0,0,0,3.42871-3.24688,49.37805,49.37805,0,0,0,5.7146-7.6608,79.08012,79.08012,0,0,0,4.5437-8.53918L491,266.02878c.56836-1.52374,1.12329-3.05582,1.7229-4.58084l.002-.00522a.10975.10975,0,0,1,.20922.06424c-.35913,1.59653-.76294,3.186-1.15356,4.78378-.46094,1.57526-.96973,3.14029-1.49072,4.70319a61.0799,61.0799,0,0,1-4.03589,9.05414,44.37522,44.37522,0,0,1-5.70581,8.21347c-.57471.6145-1.14551,1.2351-1.74268,1.8312-.635.561-1.22656,1.16422-1.90576,1.682a18.76976,18.76976,0,0,1-4.40381,2.82868l.18237-.09272a49.11107,49.11107,0,0,1-20.59472,6.328,183.03606,183.03606,0,0,1-21.37793.43887q-5.34522-.10323-10.6875-.54239c-3.55518-.32245-7.08618-.86166-10.5896-1.527a128.2682,128.2682,0,0,1-20.62964-5.55685.11.11,0,0,1-.06494-.14124A.11293.11293,0,0,1,388.86184,293.44132Z" fill="#020202"/><path d="M394.22243,217.12592c5.65821-.45383,11.31665-.69126,16.97486-.85253,5.65844-.175,11.31665-.22166,16.97509-.24351,5.65821.01915,11.31666.06586,16.9751.24023,5.65821.16066,11.31665.39925,16.97486.85581-5.65821.45654-11.31665.69513-16.97486.85579-5.65844.17437-11.31689.22108-16.9751.24023-5.65844-.02185-11.31665-.06854-16.97509-.2435C405.53908,217.81716,399.88064,217.57973,394.22243,217.12592Z" fill="#020202"/><path d="M485.93839,220.41326l-2.84543-.04838a14.54738,14.54738,0,0,1-7.91631,3.45495,13.44474,13.44474,0,0,1-10.5101-3.74527l-68.402-1.0839a12.61135,12.61135,0,0,1,2.7098,6.90985s-1.13245,4.43241-9.91-6.37758c0,0-3.49376-1.38391-4.22927.72582-.72583,2.11943-.0775,18.85218-10.80994,16.665,0,0-1.79992-11.92295,3.17432-18.22315l-8.85785-.14094v1.3288a6.09437,6.09437,0,0,1-6.09441,6.09441H319.89349l.37189,6.48916c0-.42582.01938-.66777.01938-.66777h17.34263L323.972,245.52694H302.7198a7.11926,7.11926,0,0,1-7.11322-7.026l-.155-12.528H253.52387a6.09438,6.09438,0,0,1-6.09441-6.09441v-3.20078H230.83369l-61.918,36.89144q44.6966-.392,89.39295-.42582c29.80741-.10644,59.60513,0,89.40286.03869,29.79773.00969,59.59545.21294,89.40263.36776l44.69186.28069,44.53687.41614,14.28408-8.42932,14.45845-8.47768,28.9462-16.92632Zm-33.0883,20.80709-68.96341-.49357,4.07428-4.27754,8.0713-9.368h67.70526Z"/><path d="M319.89773,225.82315c4.27173-.14779,8.5437-.24914,12.81567-.34826,4.272-.10114,8.54395-.218,12.81592-.26789l12.81592-.1969,3.20385-.04922c.25928-.00635.551-.00321.78394-.01734a4.80032,4.80032,0,0,0,.66333-.06958,4.99943,4.99943,0,0,0,1.26538-.38217,5.07345,5.07345,0,0,0,2.92773-4.07643l-.13061-25.51123q-.06115-12.81582.07715-25.63165l.40014-25.63167.21143-12.81583a5.5544,5.5544,0,0,0-5.20581-5.944c-1.01587-.04248-2.12158-.03084-3.178-.03868-17.08765-.08509-34.17554.07493-51.26318.32409q-25.63184.4184-51.26343.57068l-3.20386.01844a4.8214,4.8214,0,0,0-2.38891.6128,4.6948,4.6948,0,0,0-2.37134,4.04488l.0708,12.80176.0354,25.63165-.14941,25.63167-.25318,25.58925a5.025,5.025,0,0,0,2.61987,4.27145,5.24048,5.24048,0,0,0,2.60376.626l3.20386.0538,12.81592.21515q12.81592.22824,25.63159.58917a.14523.14523,0,0,1,0,.29035q-12.81591.36191-25.63159.58917l-12.81592.21515-3.20386.0538a7.3407,7.3407,0,0,1-3.58105-.758,7.142,7.142,0,0,1-3.91113-6.06184l-.27613-25.67349-.14941-25.63167.0354-25.63165.0769-12.82976a7.54432,7.54432,0,0,1,3.88306-6.46616,7.64066,7.64066,0,0,1,3.75537-.93132l3.20386.01844q25.63148.12714,51.26343.57068c17.08764.24916,34.17553.40916,51.26318.32409,1.07935.00656,2.11084-.02846,3.22925-.00638a6.54813,6.54813,0,0,1,3.2727,1.0298,6.654,6.654,0,0,1,2.3208,2.54865,6.83106,6.83106,0,0,1,.59546,1.64233,9.06621,9.06621,0,0,1,.15894,1.70961l.21143,12.81583.40014,25.63167q.13,12.81582.07739,25.63165L369.57741,207.72l-.052,6.40792-.02807,3.20394-.01392,1.602-.00708.801c-.00195.26229-.02539.61672-.04932.91915a7.17575,7.17575,0,0,1-4.322,5.77565,7.08558,7.08558,0,0,1-1.80713.48633,6.8497,6.8497,0,0,1-.93091.06686c-.30053.00647-.54345-.00528-.81787-.007l-3.20385-.04922-12.81592-.1969c-4.272-.04984-8.54395-.16675-12.81592-.26789-4.272-.09912-8.54394-.20047-12.81567-.34826a.14526.14526,0,0,1,0-.29035Z" fill="#020202"/><path d="M318.36013,173.15927a13.66446,13.66446,0,0,1-3.00586,8.67864,10.78624,10.78624,0,0,1-8.67871,3.809,12.53688,12.53688,0,0,1-8.436-4.05155,13.485,13.485,0,0,1-3.739-8.436,11.66175,11.66175,0,0,1,3.261-8.914,12.69738,12.69738,0,0,1,4.04712-2.8348,11.87471,11.87471,0,0,1,9.70092.08026,10.84256,10.84256,0,0,1,3.86109,2.97359A13.56484,13.56484,0,0,1,318.36013,173.15927Zm-.21948,0a9.72108,9.72108,0,0,0-1.04834-4.31465,10.54686,10.54686,0,0,0-2.74243-3.35959,12.13227,12.13227,0,0,0-7.67432-2.73085,11.00469,11.00469,0,0,0-7.45508,2.94991,11.57139,11.57139,0,0,0-3.51929,7.45518,10.35145,10.35145,0,0,0,.62549,4.28661,9.92362,9.92362,0,0,0,2.41577,3.64656,10.65476,10.65476,0,0,0,7.93311,2.72879,13.16806,13.16806,0,0,0,7.69067-2.97139,10.55563,10.55563,0,0,0,2.74268-3.369A9.61368,9.61368,0,0,0,318.14065,173.15927Z" fill="#020202"/><path d="M359.56667,217.1229c-3.35107.38594-6.70141.58093-10.05127.70874-3.34985.13989-6.69946.16656-10.04883.17134-3.34912-.03142-6.69824-.08716-10.04687-.25554-3.34863-.1563-6.697-.38135-10.04468-.79875,3.35108-.38836,6.70117-.58439,10.05127-.71164,3.34985-.13936,6.69946-.16605,10.04883-.16845,3.34912.03382,6.69824.08953,10.04687.25844C352.87063,216.48389,356.219,216.7079,359.56667,217.1229Z" fill="#020202"/><path d="M295.33547,216.84224c-3.26221.38675-6.52368.58255-9.78491.71117-3.26123.14068-6.522.16818-9.78247.17375-3.2605-.03061-6.521-.08554-9.781-.25313-3.26-.15549-6.51953-.37973-9.77856-.79631,3.26245-.38917,6.52392-.586,9.78491-.71407,3.26123-.14016,6.522-.16766,9.78271-.17086,3.2605.033,6.521.0879,9.78077.256C288.81692,216.20484,292.07668,216.42806,295.33547,216.84224Z" fill="#020202"/><path d="M335.6758,364.24249c1.23877-5.5578,2.73584-11.04174,4.33692-16.49325,1.59155-5.455,3.34228-10.861,5.17846-16.24039,1.87964-5.36416,3.82959-10.70831,6.05469-15.953,1.10156-2.626,2.27319-5.22589,3.552-7.77942.66309-1.2663,1.32154-2.53461,2.07764-3.75363a11.68813,11.68813,0,0,1,2.69019-3.32626,7.28313,7.28313,0,0,0-1.21631,1.71972c-.34156.61594-.65235,1.24637-.93775,1.89325-.58447,1.28247-1.11865,2.591-1.63086,3.90714-1.03564,2.62927-1.98169,5.297-2.93945,7.95913l-2.802,8.01749L347.263,332.225c-1.87183,5.34891-3.707,10.71313-5.62891,16.05157C339.72878,353.62091,337.78176,358.95325,335.6758,364.24249Z" fill="#020202"/><path d="M353.71511,374.481c-.64868-4.72083-1.0813-9.45059-1.43774-14.18347-.37012-4.7323-.61207-9.46991-.82935-14.20853-.176-4.74032-.32471-9.48178-.34595-14.22848-.03467-4.74613.0083-9.49549.26929-14.25379.65137,4.7207,1.0852,9.45041,1.44092,14.18332.36963,4.73236.61157,9.46994.82593,14.20868.17358,4.74042.32226,9.48187.34277,14.22861C354.01516,364.97351,353.97317,369.72281,353.71511,374.481Z" fill="#020202"/><path d="M446.03461,116.8967a1.646,1.646,0,0,0,0-3.29008,1.646,1.646,0,0,0,0,3.29008Z" fill="#020202"/><path d="M455.80614,116.8967a1.646,1.646,0,0,0,0-3.29008,1.646,1.646,0,0,0,0,3.29008Z" fill="#020202"/><path d="M458.66848,111.501a14.436,14.436,0,0,1-1.52686.16249c-.46338.03859-.896.03924-1.33056.04893-.43384.00585-.86695-.00909-1.33008-.03363a9.43547,9.43547,0,0,1-1.53711-.17779,2.86846,2.86846,0,0,1,1.26636-1.077,3.81691,3.81691,0,0,1,3.19336-.0122A2.66674,2.66674,0,0,1,458.66848,111.501Z" fill="#020202"/><path d="M447.31765,111.501a7.59206,7.59206,0,0,1-1.30786.26846,8.39032,8.39032,0,0,1-1.11328.07428,8.55918,8.55918,0,0,1-1.10474-.07335,6.95321,6.95321,0,0,1-1.31055-.26939,2.29217,2.29217,0,0,1,1.06031-.98966,2.90178,2.90178,0,0,1,1.36059-.31213,2.96873,2.96873,0,0,1,1.353.31522A2.25813,2.25813,0,0,1,447.31765,111.501Z" fill="#020202"/><path d="M454.22683,118.80493a1.90105,1.90105,0,0,1-.60864,1.39489,2.84424,2.84424,0,0,1-1.38184.74375,3.54032,3.54032,0,0,1-1.51587-.011,3.266,3.266,0,0,1-1.33008-.64706,10.7635,10.7635,0,0,1,1.38477-.207c.42749-.07689.84057-.09654,1.2207-.20424A4.93138,4.93138,0,0,0,454.22683,118.80493Z" fill="#020202"/><path d="M447.96316,125.46967a1.9021,1.9021,0,0,1,1.10571-1.04573,2.84519,2.84519,0,0,1,1.56274-.14409,3.54042,3.54042,0,0,1,1.39087.60307,3.2642,3.2642,0,0,1,.971,1.11565,10.765,10.765,0,0,1-1.35547-.35109c-.42334-.09639-.811-.23982-1.20312-.2894A4.93289,4.93289,0,0,0,447.96316,125.46967Z" fill="#020202"/><path d="M450.47835,110.76771a1.646,1.646,0,0,0,0-3.29007,1.646,1.646,0,0,0,0,3.29007Z" fill="#b21919"/><path d="M423.81185,300.26782V379.9361s16.58092,6.56443,26.76307,0V300.26782" fill="#020202"/><path d="M475.09133,380.33963a3.00829,3.00829,0,0,1-1.148,2.08792,9.95271,9.95271,0,0,1-2.05054,1.33567,26.74779,26.74779,0,0,1-4.57788,1.744,73.2337,73.2337,0,0,1-9.58716,2.05866,146.02191,146.02191,0,0,1-19.56665,1.61688,141.1722,141.1722,0,0,1-19.6643-.92749,69.75176,69.75176,0,0,1-9.73926-1.89007,27.59116,27.59116,0,0,1-4.74927-1.77265,10.83209,10.83209,0,0,1-2.25781-1.45447,3.37973,3.37973,0,0,1-.00122-5.59832,10.83763,10.83763,0,0,1,2.25806-1.45466,27.59939,27.59939,0,0,1,4.74975-1.77264,69.03086,69.03086,0,0,1,9.739-1.89258,140.5183,140.5183,0,0,1,19.665-.928,145.7874,145.7874,0,0,1,19.5669,1.62012,73.12969,73.12969,0,0,1,9.58716,2.05978,26.74827,26.74827,0,0,1,4.57763,1.74415,9.96092,9.96092,0,0,1,2.05079,1.33572A3.00912,3.00912,0,0,1,475.09133,380.33963Zm0,0a3.00013,3.00013,0,0,0-1.15991-2.07419,9.94018,9.94018,0,0,0-2.05518-1.31665,26.70192,26.70192,0,0,0-4.58178-1.70617,68.55922,68.55922,0,0,0-9.6045-1.86179,140.05826,140.05826,0,0,0-19.52881-.91656,145.24944,145.24944,0,0,0-19.43066,1.60867,72.60628,72.60628,0,0,0-9.45264,2.029,25.80848,25.80848,0,0,0-4.40966,1.6777,9.03452,9.03452,0,0,0-1.84766,1.19773,1.54089,1.54089,0,0,0-.00122,2.726,9.04161,9.04161,0,0,0,1.84814,1.19791,25.80374,25.80374,0,0,0,4.40992,1.6777,71.797,71.797,0,0,0,9.45239,2.03149,144.54151,144.54151,0,0,0,19.43139,1.60917,139.84522,139.84522,0,0,0,19.52906-.9198,68.47229,68.47229,0,0,0,9.60449-1.86289,26.70257,26.70257,0,0,0,4.58154-1.70633,9.93879,9.93879,0,0,0,2.05518-1.31671A2.99943,2.99943,0,0,0,475.09133,380.33963Z" fill="#020202"/><path d="M485.35753,140.456l-13.28748-2.75812v6.08726a70.43007,70.43007,0,0,1-3.88078,23.08133l-3.075,8.86784,10.29848,18.81641s21.48055,1.6489,23.42578,1.4844C498.83858,196.03513,502.73873,142.89482,485.35753,140.456Zm-12.23265,42.43677c-.13544-1.529-.24194-3.05814-.25157-4.59692a23.65256,23.65256,0,0,1,.31933-4.59692c.09681,1.5291.29037,3.03882.4355,4.55823l.46452,4.53885c.271,3.03882.54195,6.07758.58069,9.15514A57.73273,57.73273,0,0,1,473.12488,182.89278Zm4.79049,8.91319a1.45245,1.45245,0,0,1,0-2.90331A1.45245,1.45245,0,0,1,477.91537,191.806Zm6.02925.80327a1.45257,1.45257,0,0,1,0-2.90331A1.45257,1.45257,0,0,1,483.94462,192.60924Zm5.65176.30969a1.45245,1.45245,0,0,1,0-2.90331A1.45245,1.45245,0,0,1,489.59638,192.91893Zm5.67112.48389a1.45245,1.45245,0,0,1,0-2.90331A1.45245,1.45245,0,0,1,495.2675,193.40282Z" fill="#020202"/><path d="M463.3821,134.35394a31.34818,31.34818,0,0,1,4.43164,1.47422c1.4314.58308,2.82642,1.17041,4.25952,1.87408a11.93865,11.93865,0,0,1-4.61914-.97629A15.02527,15.02527,0,0,1,463.3821,134.35394Z" fill="#020202"/><path d="M436.0508,159.74994a42.4253,42.4253,0,0,1,3.78955-5.651,41.95486,41.95486,0,0,1,4.55249-5.05662,41.90936,41.90936,0,0,1-3.78955,5.651A42.40116,42.40116,0,0,1,436.0508,159.74994Z" fill="#020202"/><path d="M300.21434,344.6427a1.45252,1.45252,0,0,0,0-2.90331,1.45252,1.45252,0,0,0,0,2.90331Z" fill="#020202"/><path d="M304.91771,349.69447a1.45252,1.45252,0,0,0,0-2.90331,1.45252,1.45252,0,0,0,0,2.90331Z" fill="#020202"/><path d="M310.31787,354.74624a1.45252,1.45252,0,0,0,0-2.90331,1.45252,1.45252,0,0,0,0,2.90331Z" fill="#020202"/><path d="M316.24064,359.62381a1.45253,1.45253,0,0,0,0-2.90332,1.45253,1.45253,0,0,0,0,2.90332Z" fill="#020202"/><path d="M323.03439,363.97878a1.45252,1.45252,0,0,0,0-2.90331,1.45252,1.45252,0,0,0,0,2.90331Z" fill="#020202"/><path d="M330.525,365.19817a1.45252,1.45252,0,0,0,0-2.90331,1.45252,1.45252,0,0,0,0,2.90331Z" fill="#020202"/><path d="M338.1897,361.88839a1.45252,1.45252,0,0,0,0-2.90331,1.45252,1.45252,0,0,0,0,2.90331Z" fill="#020202"/><path d="M344.80925,363.45618a1.45252,1.45252,0,0,0,0-2.90331,1.45252,1.45252,0,0,0,0,2.90331Z" fill="#020202"/><path d="M350.732,366.766a1.45252,1.45252,0,0,0,0-2.90331,1.45252,1.45252,0,0,0,0,2.90331Z" fill="#020202"/><path d="M356.30638,372.86292a1.45252,1.45252,0,0,0,0-2.90331,1.45252,1.45252,0,0,0,0,2.90331Z" fill="#020202"/><path d="M363.44854,371.81773a1.45252,1.45252,0,0,0,0-2.90331,1.45252,1.45252,0,0,0,0,2.90331Z" fill="#020202"/><path d="M370.59069,369.90154a1.45252,1.45252,0,0,0,0-2.90331,1.45252,1.45252,0,0,0,0,2.90331Z" fill="#020202"/><path d="M376.33925,367.28856a1.45252,1.45252,0,0,0,0-2.90331,1.45252,1.45252,0,0,0,0,2.90331Z" fill="#020202"/><path d="M382.61041,362.93359a1.45253,1.45253,0,0,0,0-2.90332,1.45253,1.45253,0,0,0,0,2.90332Z" fill="#020202"/><path d="M388.01058,357.70762a1.45252,1.45252,0,0,0,0-2.90331,1.45252,1.45252,0,0,0,0,2.90331Z" fill="#020202"/><path d="M392.36555,352.48165a1.45252,1.45252,0,0,0,0-2.90331,1.45252,1.45252,0,0,0,0,2.90331Z" fill="#020202"/><path d="M495.7029,195.85874a81.92066,81.92066,0,0,1-2.084,7.9429,52.72624,52.72624,0,0,1-3.03736,7.67289,34.1135,34.1135,0,0,1-4.49365,7.01879,18.40137,18.40137,0,0,1-6.73364,5.16136,13.76527,13.76527,0,0,1-8.57373.79491,14.84172,14.84172,0,0,1-7.44165-4.3422l-.74927-.79576-.6416-.824c-.42334-.552-.86816-1.09027-1.25513-1.66558l-1.19409-1.7043-1.11572-1.75081a73.635,73.635,0,0,1-3.93433-7.27841,104.81705,104.81705,0,0,1-5.85718-15.38859,128.92391,128.92391,0,0,1-3.66308-16.009,123.61442,123.61442,0,0,1-1.50781-16.34955,66.99164,66.99164,0,0,1,.24707-8.24357c.15576-1.3725.3164-2.7482.60742-4.11341a17.77081,17.77081,0,0,1,1.26855-4.10844l-.05957.13064a17.64056,17.64056,0,0,1,1.23609-2.71659,17.03337,17.03337,0,0,1,1.66357-2.4652,13.96457,13.96457,0,0,1,2.1377-2.12987,12.02247,12.02247,0,0,1,2.63354-1.584l-.2334.13913a19.23782,19.23782,0,0,0,2.18848-2.27956,11.982,11.982,0,0,0,1.63623-2.59248,5.42575,5.42575,0,0,0,.4104-1.34493,16.73486,16.73486,0,0,1,.22168-1.74443l.17334-.53526a3.7107,3.7107,0,0,1,.3103-.56908,2.03374,2.03374,0,0,1,1.3728-.86168,2.22149,2.22149,0,0,1,1.48511.34974,2.39209,2.39209,0,0,1,.55152.47917,1.645,1.645,0,0,1,.41748,1.03265l-2.07544-.058a4.87736,4.87736,0,0,1,.241-1.21483,3.25009,3.25009,0,0,1,.7-1.216,2.3135,2.3135,0,0,1,1.54322-.712,3.21533,3.21533,0,0,1,1.41235.26675l-1.469.78455a5.36782,5.36782,0,0,1,.2539-.892,3.14031,3.14031,0,0,1,.55542-.96016,1.79024,1.79024,0,0,1,.70288-.50008,1.601,1.601,0,0,1,1.03272-.04617,2.40929,2.40929,0,0,1,1.1062.73912l-1.4187-.1806a3.6091,3.6091,0,0,1,1.17773-.50916,2.23808,2.23808,0,0,1,.84937-.02428,1.80284,1.80284,0,0,1,.96338.486,2.38675,2.38675,0,0,1,.64135,1.46443,5.68934,5.68934,0,0,1,.02466.59088l-.01855.45891a33.74812,33.74812,0,0,1-.37647,3.59456,15.99149,15.99149,0,0,1-2.56787,7.02227c-.44531.58727-.79516.93206-1.18994,1.39316l-1.15527,1.30637-2.31006,2.61274-4.64917,5.20028.26684-.95411a121.19567,121.19567,0,0,0,7.87745,27.1747c1.84521,4.35309,3.9663,8.61681,6.157,12.841l3.314,6.329,3.41162,6.3472a.09128.09128,0,0,1-.156.09441l-.06323-.09441c-1.26538-1.89123-2.54566-3.99926-3.77784-6.01323-1.23608-2.04057-2.47631-4.08073-3.65893-6.15472-2.37134-4.14392-4.689-8.327-6.73828-12.6767a111.74506,111.74506,0,0,1-5.1626-13.45082q-1.07447-3.44185-1.95117-6.94255-.84156-3.50709-1.50073-7.05377a1.11767,1.11767,0,0,1,.25512-.94109l.01172-.01335,4.61035-5.253,2.31958-2.6139,1.15967-1.30694c.36377-.42079.8313-.90883,1.08057-1.25714a14.61631,14.61631,0,0,0,2.17383-5.97141,31.4707,31.4707,0,0,0,.39868-3.341l.023-.41285c.00854-.11334-.01-.18544-.00733-.28073-.00952-.15326-.0813-.25785.01831-.12787a.4245.4245,0,0,0,.19678.10365c.05249,0,.02271.00038-.0166.00368a1.5946,1.5946,0,0,0-.4187.17485l-.03369.0213a1.07628,1.07628,0,0,1-1.38526-.20193c-.07739-.08854-.20849-.16875-.06152-.09865a.62868.62868,0,0,0,.32373-.02381.39737.39737,0,0,0,.12329-.07534,1.16835,1.16835,0,0,0-.1604.29861,3.39806,3.39806,0,0,0-.1543.50447,1.09631,1.09631,0,0,1-1.43676.79654l-.03248-.01187a1.21375,1.21375,0,0,0-.44433-.11105c-.08277.00733-.07837-.00446-.15308.057a1.2165,1.2165,0,0,0-.23828.43409,2.96587,2.96587,0,0,0-.14526.65352l-2.07544-.058c.01025.30391.096.29657.06714.291a.33558.33558,0,0,0-.07544-.06593c-.07471-.05236-.13672-.05065-.09668-.05216.043.00217.07617-.06021.01465.015-.02515.03432-.05494.10434-.09009.1608l-.08716.25775c-.10693.42128-.1001.8179-.20874,1.56444a7.40185,7.40185,0,0,1-.5813,1.83227,13.52047,13.52047,0,0,1-1.9812,2.99836,20.9249,20.9249,0,0,1-2.49756,2.46871.85434.85434,0,0,1-.20166.12552l-.03223.01381a10.24727,10.24727,0,0,0-2.24975,1.28067,12.26,12.26,0,0,0-1.92212,1.82294,17.70705,17.70705,0,0,0-1.57861,2.188,16.36089,16.36089,0,0,0-1.2107,2.40007c-.01709.0437-.03857.09023-.05957.131a17.09659,17.09659,0,0,0-1.25781,3.65667,39.22262,39.22262,0,0,0-.73486,3.95874,65.962,65.962,0,0,0-.51123,8.10172,107.99938,107.99938,0,0,0,1.26782,16.25171,96.7351,96.7351,0,0,0,3.99267,15.79889,105.03117,105.03117,0,0,0,6.39136,14.94508q1.87061,3.60075,4.0437,7.01125l1.103,1.68925,1.16211,1.64272c.3772.55642.80591,1.06843,1.21509,1.59726l.61889.78866.656.69191a12.9129,12.9129,0,0,0,6.44849,3.86345,12.25457,12.25457,0,0,0,7.4729-.56676,17.80566,17.80566,0,0,0,6.27588-4.54829,32.79038,32.79038,0,0,0,4.56469-6.57025,66.21729,66.21729,0,0,0,3.36035-7.38338c.97413-2.53569,1.80933-5.129,2.60035-7.74055a.10961.10961,0,0,1,.13623-.07419A.111.111,0,0,1,495.7029,195.85874Z" fill="#020202"/><path d="M304.12282,352.72794a36.15074,36.15074,0,0,1-6.78491,13.806,21.98314,21.98314,0,0,1-5.96045,5.14737c-1.15674.70114-2.2395,1.19708-3.34546,1.857l-3.28833,1.907c-4.36377,2.59369-8.76049,5.17481-13.10986,7.83435-4.36914,2.62961-8.63623,5.42765-12.80884,8.35395l.127-.19342a7.6162,7.6162,0,0,0,.5769,4.21148,6.06693,6.06693,0,0,0,2.93335,2.90738,6.2463,6.2463,0,0,0,.979.4054l1.03418.27783a19.76669,19.76669,0,0,0,2.144.25888c.73071-.01834,1.45483.01877,2.18359-.0412l2.186-.23215-.23951.0727q6.512-3.43341,13.13379-6.63379c4.41553-2.144,8.84033-4.25894,13.43677-6.08447,1.145-.46058,2.31934-.88114,3.511-1.28287l.93042-.2666a5.43476,5.43476,0,0,1,1.00244-.2284l.56054-.07476.27784-.03241.1997-.00855a5.82972,5.82972,0,0,0,.81226-.05066,17.00667,17.00667,0,0,0,6.50195-2.36246,20.79582,20.79582,0,0,0,5.35156-4.5903,20.16385,20.16385,0,0,0,3.39893-6.26361l.01172-.034.00952-.02256c.44287-.84805.86914-1.71411,1.26929-2.58654a15.87622,15.87622,0,0,0,1.02124-2.67151l.00171-.00809a.09659.09659,0,0,1,.18994.03369,13.89692,13.89692,0,0,1-.76318,2.82782c-.32715.91632-.67725,1.81879-1.05176,2.72l.02124-.05615a19.85089,19.85089,0,0,1-8.60816,12.01923A20.37106,20.37106,0,0,1,308.593,385.433a15.7006,15.7006,0,0,1-3.73364,1.08807,7.66407,7.66407,0,0,1-1.01612.102l-.259.01334-.17627.03482-.34741.06207a4.00165,4.00165,0,0,0-.77979.19788l-.83081.25372c-1.12134.40161-2.24609.826-3.365,1.29974-2.2395.925-4.48095,1.89041-6.70459,2.89511-2.22925.99359-4.46191,1.98651-6.68091,3.01313l-13.28857,6.22369-.05786.02707a.49872.49872,0,0,1-.18213.04571l-2.314.125c-.77247.01816-1.55494-.06332-2.32789-.09222a20.62085,20.62085,0,0,1-2.312-.4176l-1.12793-.37018a7.23407,7.23407,0,0,1-1.07812-.51114,6.93722,6.93722,0,0,1-3.167-3.47281,8.519,8.519,0,0,1-.4961-4.62982.27965.27965,0,0,1,.11963-.18878l.00733-.00491q6.35375-4.27354,12.60156-8.69852c4.19336-2.91431,8.37768-5.85474,12.78467-8.47058,2.15771-1.34192,4.521-2.52573,6.71044-3.7183a21.698,21.698,0,0,0,5.71167-4.61413,35.91655,35.91655,0,0,0,4.37134-6.10165,46.044,46.044,0,0,0,3.28223-6.849l.0022-.006a.0967.0967,0,0,1,.18383.05912Z" fill="#020202"/><path d="M258.64982,391.38033s-7.39773,11.55136,8.21615,16.44846c0,0,9.19167,2.43614,23.98227-12.38788,0,0,6.75524-6.45,8.57162-6.21311l-2.20668,5.98825,7.93924,2.73526,9.63351-4.44541,4.80281-20.11252a21.30374,21.30374,0,0,1-16.00128,12.27374c-12.249,2.24423-21.80376,9.70393-32.50732,14.29148C271.08014,399.9586,257.25964,402.38518,258.64982,391.38033Z" fill="#020202"/><path d="M268.48482,384.74372s9.31669.67928,10.87979,11.14166l8.88756-4.20989s-1.63873-12.8261-12.998-11.35278C275.25419,380.32271,271.46092,379.67247,268.48482,384.74372Z" fill="#020202"/><path d="M364.834,364.82443a36.30509,36.30509,0,0,1,.88061,15.35794,22.05211,22.05211,0,0,1-2.6626,7.40909c-.69531,1.15924-1.36352,2.14359-2.00634,3.25952l-1.91944,3.28135c-2.52612,4.40368-5.08667,8.81274-7.56689,13.267-2.50586,4.44126-4.8667,8.96586-7.0315,13.58042l.01612-.24368a7.7278,7.7278,0,0,0,2.55029,3.40039,5.99579,5.99579,0,0,0,3.98926,1.09945,10.60037,10.60037,0,0,0,4.08423-1.2406,24.43182,24.43182,0,0,0,3.66992-2.39081l-.17334.18149c3.54761-5.51761,7.23364-10.93323,11.01245-16.301,1.90356-2.67481,3.84424-5.32349,5.91894-7.89667a42.69719,42.69719,0,0,1,3.35059-3.76648,6.64373,6.64373,0,0,1,1.16016-.90613,7.9005,7.9005,0,0,0,.90454-.5824,12.897,12.897,0,0,0,1.67822-1.547,20.49049,20.49049,0,0,0,4.4502-8.22937,22.09683,22.09683,0,0,0,.54248-9.505c-1.01172-6.48706-1.81226-12.97851-2.6084-19.48071a.09684.09684,0,0,1,.19189-.02615c1.01587,6.46493,1.96094,12.95367,3.1355,19.37725a22.56479,22.56479,0,0,1,.08057,9.97177,21.51807,21.51807,0,0,1-4.44605,9.07847,14.70583,14.70583,0,0,1-1.85864,1.849,9.38492,9.38492,0,0,1-1.13013.7876,5.30626,5.30626,0,0,0-.7478.62973,41.30742,41.30742,0,0,0-3.10376,3.62689c-2.00488,2.548-3.94116,5.17768-5.88086,7.80237-3.88037,5.25272-7.64307,10.608-11.42432,15.94083l-.021.02954a.64724.64724,0,0,1-.15259.15222,23.70953,23.70953,0,0,1-4.02393,2.31629,11.97007,11.97007,0,0,1-4.57348,1.107,6.86863,6.86863,0,0,1-4.47656-1.47839,8.64034,8.64034,0,0,1-2.71558-3.79593.31253.31253,0,0,1,.01636-.244c2.31884-4.54874,4.53711-9.14081,6.71508-13.76227,2.219-4.59942,4.417-9.21741,6.96851-13.66244,1.2229-2.22733,2.69116-4.42475,4.05469-6.51255a21.96661,21.96661,0,0,0,2.675-6.84671,33.85747,33.85747,0,0,0,.80371-7.4642,45.92749,45.92749,0,0,0-.51416-7.57779l-.001-.00583a.09669.09669,0,0,1,.189-.03946Z" fill="#020202"/><path d="M344.23544,420.8378s-.76377,13.69588,15.24062,10.285c0,0,9.202-2.397,14.79492-22.577,0,0,2.712-8.93758,4.4102-9.62422l1.02205,6.29953,8.25836-1.52082,6.2039-8.60684-5.70445-19.8756a21.30375,21.30375,0,0,1-7.90093,18.55427c-9.56357,7.97568-14.21717,19.16878-21.283,28.42543C359.27707,422.19756,348.43458,431.10457,344.23544,420.8378Z" fill="#020202"/><path d="M349.53766,410.22375s8.4472-3.98836,14.95149,4.35423l5.67008-8.03505s-7.73211-10.36382-16.89986-3.49683C353.25937,403.0461,349.63642,404.34454,349.53766,410.22375Z" fill="#020202"/><path d="M322.92214,243.95719a.74164.74164,0,0,1,.0708.0906l.00562.00745.00879.01016,1.15039,1.30609a.239.239,0,0,1-.16529.39646l-.0205.00122c-5.458.323-10.916.51995-16.37378.62368l-4.09351.07068a11.501,11.501,0,0,1-2.20776-.11349,7.95548,7.95548,0,0,1-5.55176-3.85071,8.051,8.051,0,0,1-1.06177-4.40051c.08008-5.45935.28467-10.92023.33618-16.3792q.03663-8.18794-.34741-16.37079a11.039,11.039,0,0,1,.03833-2.14171,7.57269,7.57269,0,0,1,.59961-2.13354,7.84778,7.84778,0,0,1,2.86157-3.39856,8.023,8.023,0,0,1,4.30689-1.32961l4.0935-.07669,4.09351-.05256a9.09156,9.09156,0,0,1,9.18774,8.66307q.95874,16.34571,1.19141,32.73283l.00049.03659-.001.02454a6.90823,6.90823,0,0,0,.08716,1.58261,11.43051,11.43051,0,0,0,.385,1.6131,15.87662,15.87662,0,0,0,1.39453,3.06723.10971.10971,0,0,1-.03638.151.11158.11158,0,0,1-.14477-.02741,16.70943,16.70943,0,0,1-.98413-1.42471,13.74355,13.74355,0,0,1-.80176-1.55063,12.14662,12.14662,0,0,1-.5813-1.66614,7.5918,7.5918,0,0,1-.27612-1.81192l-.00025.06076q-1.65453-16.30494-2.56665-32.65415a7.28193,7.28193,0,0,0-.98706-3.34209,6.89067,6.89067,0,0,0-2.481-2.44643,6.983,6.983,0,0,0-3.386-.93146l-4.09351-.05256-4.0935-.07669a6.502,6.502,0,0,0-5.98584,3.47624,6.14139,6.14139,0,0,0-.62134,1.75578,9.95687,9.95687,0,0,0-.14356,1.9404q-.19152,8.18971.0503,16.37424c.18652,5.456.52636,10.91012.74145,16.36572a6.62931,6.62931,0,0,0,.90967,3.434,6.392,6.392,0,0,0,2.54,2.38523,5.95533,5.95533,0,0,0,1.66382.57434,9.66357,9.66357,0,0,0,1.87158.12081l4.09351.07068c5.45776.10376,10.91577.30066,16.37378.62369l-.1858.39752-.97876-1.48074.01441.01724c-.0376-.059-.07251-.12027-.10327-.18017a.10466.10466,0,0,1,.1709-.11786Z" fill="#020202"/><path d="M349.50052,270.30734a8.68282,8.68282,0,0,1,1.00378,2.26608,13.35068,13.35068,0,0,1,.45777,2.32419,13.11958,13.11958,0,0,1,.04431,2.36816,8.57378,8.57378,0,0,1-.507,2.42688,8.5819,8.5819,0,0,1-1.00635-2.26577,13.12013,13.12013,0,0,1-.45508-2.3245,13.36228,13.36228,0,0,1-.04187-2.36844A8.68778,8.68778,0,0,1,349.50052,270.30734Z" fill="#fff"/></svg>